<svg xmlns="http://www.w3.org/2000/svg" xmlns:xlink="http://www.w3.org/1999/xlink" width="500" zoomAndPan="magnify" viewBox="0 0 375 374.999991" height="500" preserveAspectRatio="xMidYMid meet" version="1.0"><defs><clipPath id="99966c8a69"><path d="M 25.800781 110.394531 L 264 110.394531 L 264 348.894531 L 25.800781 348.894531 Z M 25.800781 110.394531 " clip-rule="nonzero"/></clipPath><clipPath id="2989a22be6"><path d="M 25.050781 117.144531 L 25.050781 341.863281 C 25.050781 343.851562 25.84375 345.757812 27.25 347.164062 C 28.65625 348.570312 30.5625 349.363281 32.550781 349.363281 L 257.269531 349.363281 C 261.410156 349.363281 264.769531 346.003906 264.769531 341.863281 L 264.769531 117.144531 C 264.769531 115.15625 263.980469 113.246094 262.574219 111.839844 C 261.164062 110.433594 259.257812 109.644531 257.269531 109.644531 L 32.550781 109.644531 C 28.410156 109.644531 25.050781 113.003906 25.050781 117.144531 Z M 25.050781 117.144531 " clip-rule="nonzero"/></clipPath><clipPath id="b120685301"><path d="M 33.453125 110.542969 L 256.371094 110.542969 C 260.511719 110.542969 263.871094 113.902344 263.871094 118.042969 L 263.871094 340.960938 C 263.871094 345.105469 260.511719 348.460938 256.371094 348.460938 L 33.453125 348.460938 C 29.308594 348.460938 25.953125 345.105469 25.953125 340.960938 L 25.953125 118.042969 C 25.953125 113.902344 29.308594 110.542969 33.453125 110.542969 Z M 33.453125 110.542969 " clip-rule="nonzero"/></clipPath><clipPath id="e37ccaf46e"><path d="M 25.050781 109.644531 L 265 109.644531 L 265 349.632812 L 25.050781 349.632812 Z M 25.050781 109.644531 " clip-rule="nonzero"/></clipPath><clipPath id="25b51e7bea"><path d="M 25.050781 117.144531 L 25.050781 341.863281 C 25.050781 343.851562 25.84375 345.757812 27.25 347.164062 C 28.65625 348.570312 30.5625 349.363281 32.550781 349.363281 L 257.269531 349.363281 C 261.410156 349.363281 264.769531 346.003906 264.769531 341.863281 L 264.769531 117.144531 C 264.769531 115.15625 263.980469 113.246094 262.574219 111.839844 C 261.164062 110.433594 259.257812 109.644531 257.269531 109.644531 L 32.550781 109.644531 C 28.410156 109.644531 25.050781 113.003906 25.050781 117.144531 Z M 25.050781 117.144531 " clip-rule="nonzero"/></clipPath><clipPath id="7976d5e5e6"><path d="M 25.050781 117.144531 L 25.050781 341.851562 C 25.050781 343.839844 25.84375 345.75 27.25 347.15625 C 28.65625 348.5625 30.5625 349.351562 32.550781 349.351562 L 257.257812 349.351562 C 261.402344 349.351562 264.757812 345.992188 264.757812 341.851562 L 264.757812 117.144531 C 264.757812 115.15625 263.96875 113.246094 262.5625 111.839844 C 261.15625 110.433594 259.25 109.644531 257.257812 109.644531 L 32.550781 109.644531 C 28.410156 109.644531 25.050781 113.003906 25.050781 117.144531 Z M 25.050781 117.144531 " clip-rule="nonzero"/></clipPath><clipPath id="ed3acb1930"><path d="M 111 26.386719 L 349.480469 26.386719 L 349.480469 264.886719 L 111 264.886719 Z M 111 26.386719 " clip-rule="nonzero"/></clipPath><clipPath id="3c28b78e99"><path d="M 110.230469 33.136719 L 110.230469 257.855469 C 110.230469 259.84375 111.019531 261.753906 112.425781 263.160156 C 113.835938 264.566406 115.742188 265.355469 117.730469 265.355469 L 342.449219 265.355469 C 346.589844 265.355469 349.949219 261.996094 349.949219 257.855469 L 349.949219 33.136719 C 349.949219 31.148438 349.15625 29.242188 347.75 27.835938 C 346.34375 26.429688 344.4375 25.636719 342.449219 25.636719 L 117.730469 25.636719 C 113.589844 25.636719 110.230469 28.996094 110.230469 33.136719 Z M 110.230469 33.136719 " clip-rule="nonzero"/></clipPath><clipPath id="b7f040ea57"><path d="M 118.628906 26.539062 L 341.546875 26.539062 C 345.691406 26.539062 349.046875 29.894531 349.046875 34.039062 L 349.046875 256.957031 C 349.046875 261.097656 345.691406 264.457031 341.546875 264.457031 L 118.628906 264.457031 C 114.488281 264.457031 111.128906 261.097656 111.128906 256.957031 L 111.128906 34.039062 C 111.128906 29.894531 114.488281 26.539062 118.628906 26.539062 Z M 118.628906 26.539062 " clip-rule="nonzero"/></clipPath><clipPath id="bd2dbad97a"><path d="M 110.230469 25.636719 L 350 25.636719 L 350 265.628906 L 110.230469 265.628906 Z M 110.230469 25.636719 " clip-rule="nonzero"/></clipPath><clipPath id="e273302e72"><path d="M 110.230469 33.136719 L 110.230469 257.855469 C 110.230469 259.84375 111.019531 261.753906 112.425781 263.160156 C 113.835938 264.566406 115.742188 265.355469 117.730469 265.355469 L 342.449219 265.355469 C 346.589844 265.355469 349.949219 261.996094 349.949219 257.855469 L 349.949219 33.136719 C 349.949219 31.148438 349.15625 29.242188 347.75 27.835938 C 346.34375 26.429688 344.4375 25.636719 342.449219 25.636719 L 117.730469 25.636719 C 113.589844 25.636719 110.230469 28.996094 110.230469 33.136719 Z M 110.230469 33.136719 " clip-rule="nonzero"/></clipPath><clipPath id="2b21a0d4d7"><path d="M 110.230469 33.136719 L 110.230469 257.84375 C 110.230469 259.835938 111.019531 261.742188 112.425781 263.148438 C 113.832031 264.554688 115.742188 265.34375 117.730469 265.34375 L 342.4375 265.34375 C 346.578125 265.34375 349.9375 261.988281 349.9375 257.84375 L 349.9375 33.136719 C 349.9375 31.148438 349.148438 29.242188 347.742188 27.835938 C 346.335938 26.429688 344.425781 25.636719 342.4375 25.636719 L 117.730469 25.636719 C 113.589844 25.636719 110.230469 28.996094 110.230469 33.136719 Z M 110.230469 33.136719 " clip-rule="nonzero"/></clipPath></defs><g clip-path="url(#99966c8a69)"><g clip-path="url(#2989a22be6)"><g clip-path="url(#b120685301)"><path fill="#7e8181" d="M 264.757812 349.351562 L 25.050781 349.351562 L 25.050781 109.644531 L 264.757812 109.644531 Z M 26.578125 347.828125 L 263.234375 347.828125 L 263.234375 111.167969 L 26.578125 111.167969 Z M 26.578125 347.828125 " fill-opacity="1" fill-rule="nonzero"/></g></g></g><g clip-path="url(#e37ccaf46e)"><g clip-path="url(#25b51e7bea)"><g clip-path="url(#7976d5e5e6)"><path stroke-linecap="butt" transform="matrix(0.75, 0, 0, 0.75, 25.05201, 109.644727)" fill="none" stroke-linejoin="miter" d="M -0.00163798 9.99974 L -0.00163798 309.609154 C -0.00163798 312.260196 1.055654 314.807071 2.930654 316.682071 C 4.805654 318.557072 7.347321 319.609155 9.998363 319.609155 L 309.607777 319.609155 C 315.13382 319.609155 319.607778 315.129988 319.607778 309.609154 L 319.607778 9.99974 C 319.607778 7.348698 318.555695 4.801823 316.680695 2.926822 C 314.805695 1.051822 312.264028 -0.000261267 309.607777 -0.000261267 L 9.998363 -0.000261267 C 4.477529 -0.000261267 -0.00163798 4.478906 -0.00163798 9.99974 Z M -0.00163798 9.99974 " stroke="#7e8181" stroke-width="28" stroke-opacity="1" stroke-miterlimit="4"/></g></g></g><g clip-path="url(#ed3acb1930)"><g clip-path="url(#3c28b78e99)"><g clip-path="url(#b7f040ea57)"><path fill="#7e8181" d="M 349.9375 265.34375 L 110.230469 265.34375 L 110.230469 25.636719 L 349.9375 25.636719 Z M 111.753906 263.820312 L 348.414062 263.820312 L 348.414062 27.164062 L 111.753906 27.164062 Z M 111.753906 263.820312 " fill-opacity="1" fill-rule="nonzero"/></g></g></g><g clip-path="url(#bd2dbad97a)"><g clip-path="url(#e273302e72)"><g clip-path="url(#2b21a0d4d7)"><path stroke-linecap="butt" transform="matrix(0.75, 0, 0, 0.75, 110.230785, 25.638051)" fill="none" stroke-linejoin="miter" d="M -0.000422015 9.998225 L -0.000422015 309.607639 C -0.000422015 312.26389 1.051661 314.805557 2.926662 316.680557 C 4.801662 318.555557 7.348537 319.607641 9.999579 319.607641 L 309.608993 319.607641 C 315.129827 319.607641 319.608994 315.133682 319.608994 309.607639 L 319.608994 9.998225 C 319.608994 7.347183 318.556911 4.805516 316.681911 2.930516 C 314.80691 1.055516 312.260035 -0.00177585 309.608993 -0.00177585 L 9.999579 -0.00177585 C 4.478745 -0.00177585 -0.000422015 4.477391 -0.000422015 9.998225 Z M -0.000422015 9.998225 " stroke="#7e8181" stroke-width="28" stroke-opacity="1" stroke-miterlimit="4"/></g></g></g></svg>